{
    "asset" : {
        "generator" : "Khronos glTF Blender I/O v1.8.19",
        "version" : "2.0"
    },
    "scene" : 0,
    "scenes" : [
        {
            "name" : "Scene",
            "nodes" : [
                0,
                1,
                2,
                3
            ]
        }
    ],
    "nodes" : [
        {
            "mesh" : 0,
            "name" : "AnchMull",
            "rotation" : [
                -0.7071068286895752,
                0,
                0,
                0.7071068286895752
            ]
        },
        {
            "mesh" : 1,
            "name" : "fram",
            "rotation" : [
                -0.7071068286895752,
                0,
                0,
                0.7071068286895752
            ]
        },
        {
            "mesh" : 2,
            "name" : "frame",
            "rotation" : [
                -0.7071068286895752,
                0,
                0,
                0.7071068286895752
            ]
        },
        {
            "mesh" : 3,
            "name" : "Panel",
            "rotation" : [
                -0.7071068286895752,
                0,
                0,
                0.7071068286895752
            ]
        }
    ],
    "materials" : [
        {
            "name" : "Aluminum",
            "pbrMetallicRoughness" : {
                "baseColorFactor" : [
                    0.39675474166870117,
                    0.3967548906803131,
                    0.396755188703537,
                    1
                ],
                "metallicFactor" : 0.5
            }
        },
        {
            "doubleSided" : true,
            "name" : "AngelHair",
            "pbrMetallicRoughness" : {
                "metallicFactor" : 0,
                "roughnessFactor" : 0.5
            }
        }
    ],
    "meshes" : [
        {
            "name" : "Mesh_0.001",
            "primitives" : [
                {
                    "attributes" : {
                        "POSITION" : 0,
                        "NORMAL" : 1,
                        "TEXCOORD_0" : 2
                    },
                    "indices" : 3,
                    "material" : 0
                }
            ]
        },
        {
            "name" : "GH_Obj.002",
            "primitives" : [
                {
                    "attributes" : {
                        "POSITION" : 4,
                        "NORMAL" : 5,
                        "TEXCOORD_0" : 6
                    },
                    "indices" : 7,
                    "material" : 1
                }
            ]
        },
        {
            "name" : "GH_Obj.001",
            "primitives" : [
                {
                    "attributes" : {
                        "POSITION" : 8,
                        "NORMAL" : 9,
                        "TEXCOORD_0" : 10
                    },
                    "indices" : 11,
                    "material" : 1
                }
            ]
        },
        {
            "name" : "Mesh_2",
            "primitives" : [
                {
                    "attributes" : {
                        "POSITION" : 12,
                        "NORMAL" : 13,
                        "TEXCOORD_0" : 14
                    },
                    "indices" : 15
                }
            ]
        }
    ],
    "accessors" : [
        {
            "bufferView" : 0,
            "componentType" : 5126,
            "count" : 25309,
            "max" : [
                1.0895952073042281e-05,
                0.006347387097775936,
                4.200905799865723
            ],
            "min" : [
                -2.0370864868164062,
                -0.12422551959753036,
                -0.10832222551107407
            ],
            "type" : "VEC3"
        },
        {
            "bufferView" : 1,
            "componentType" : 5126,
            "count" : 25309,
            "type" : "VEC3"
        },
        {
            "bufferView" : 2,
            "componentType" : 5126,
            "count" : 25309,
            "type" : "VEC2"
        },
        {
            "bufferView" : 3,
            "componentType" : 5123,
            "count" : 60696,
            "type" : "SCALAR"
        },
        {
            "bufferView" : 4,
            "componentType" : 5126,
            "count" : 4017,
            "max" : [
                -1.0161503553390503,
                -0.10656348615884781,
                2.0464327335357666
            ],
            "min" : [
                -1.9330928325653076,
                -0.16451959311962128,
                -0.11002703756093979
            ],
            "type" : "VEC3"
        },
        {
            "bufferView" : 5,
            "componentType" : 5126,
            "count" : 4017,
            "type" : "VEC3"
        },
        {
            "bufferView" : 6,
            "componentType" : 5126,
            "count" : 4017,
            "type" : "VEC2"
        },
        {
            "bufferView" : 7,
            "componentType" : 5123,
            "count" : 10128,
            "type" : "SCALAR"
        },
        {
            "bufferView" : 8,
            "componentType" : 5126,
            "count" : 11849,
            "max" : [
                -0.09920785576105118,
                -0.10656348615884781,
                4.202892780303955
            ],
            "min" : [
                -1.9330928325653076,
                -0.16451959311962128,
                -0.11002703756093979
            ],
            "type" : "VEC3"
        },
        {
            "bufferView" : 9,
            "componentType" : 5126,
            "count" : 11849,
            "type" : "VEC3"
        },
        {
            "bufferView" : 10,
            "componentType" : 5126,
            "count" : 11849,
            "type" : "VEC2"
        },
        {
            "bufferView" : 11,
            "componentType" : 5123,
            "count" : 30384,
            "type" : "SCALAR"
        },
        {
            "bufferView" : 12,
            "componentType" : 5126,
            "count" : 577405,
            "max" : [
                -0.10124345868825912,
                -0.1624811440706253,
                4.200868129730225
            ],
            "min" : [
                -1.93105947971344,
                -0.16451315581798553,
                -0.1079878881573677
            ],
            "type" : "VEC3"
        },
        {
            "bufferView" : 13,
            "componentType" : 5126,
            "count" : 577405,
            "type" : "VEC3"
        },
        {
            "bufferView" : 14,
            "componentType" : 5126,
            "count" : 577405,
            "type" : "VEC2"
        },
        {
            "bufferView" : 15,
            "componentType" : 5125,
            "count" : 1116576,
            "type" : "SCALAR"
        }
    ],
    "bufferViews" : [
        {
            "buffer" : 0,
            "byteLength" : 303708,
            "byteOffset" : 0
        },
        {
            "buffer" : 0,
            "byteLength" : 303708,
            "byteOffset" : 303708
        },
        {
            "buffer" : 0,
            "byteLength" : 202472,
            "byteOffset" : 607416
        },
        {
            "buffer" : 0,
            "byteLength" : 121392,
            "byteOffset" : 809888
        },
        {
            "buffer" : 0,
            "byteLength" : 48204,
            "byteOffset" : 931280
        },
        {
            "buffer" : 0,
            "byteLength" : 48204,
            "byteOffset" : 979484
        },
        {
            "buffer" : 0,
            "byteLength" : 32136,
            "byteOffset" : 1027688
        },
        {
            "buffer" : 0,
            "byteLength" : 20256,
            "byteOffset" : 1059824
        },
        {
            "buffer" : 0,
            "byteLength" : 142188,
            "byteOffset" : 1080080
        },
        {
            "buffer" : 0,
            "byteLength" : 142188,
            "byteOffset" : 1222268
        },
        {
            "buffer" : 0,
            "byteLength" : 94792,
            "byteOffset" : 1364456
        },
        {
            "buffer" : 0,
            "byteLength" : 60768,
            "byteOffset" : 1459248
        },
        {
            "buffer" : 0,
            "byteLength" : 6928860,
            "byteOffset" : 1520016
        },
        {
            "buffer" : 0,
            "byteLength" : 6928860,
            "byteOffset" : 8448876
        },
        {
            "buffer" : 0,
            "byteLength" : 4619240,
            "byteOffset" : 15377736
        },
        {
            "buffer" : 0,
            "byteLength" : 4466304,
            "byteOffset" : 19996976
        }
    ],
    "buffers" : [
        {
            "byteLength" : 24463280,
            "uri" : "scene.bin"
        }
    ]
}
